<?xml version="1.0" encoding="utf-8"?>
<svg viewBox="115.126 137.284 284.757 102.119" width="284.757" height="102.119" xmlns="http://www.w3.org/2000/svg" style="stroke: #000000cc; stroke-width: .5px;">
  <path d="M 152.138 192.245 L 130.556 192.245 L 130.653 217.245 L 123.134 217.245 L 123.134 161.288 L 152.138 161.288 Z M 144.325 185.214 L 144.325 168.222 L 130.556 168.222 L 130.556 185.214 Z" style="fill: #fff; white-space: pre;"/>
  <path d="M 169.856 199.276 L 169.856 210.214 L 193.001 210.214 L 193.001 217.245 L 162.044 217.245 L 162.044 173.202 L 192.805 173.202 L 192.805 199.276 Z M 169.856 192.05 L 185.677 192.05 L 185.677 180.429 L 169.856 180.429 Z" style="fill: #fff; white-space: pre;"/>
  <path d="M 226.161 191.268 L 226.161 180.233 L 203.016 180.233 L 203.016 173.202 L 233.973 173.202 L 233.973 217.245 L 203.212 217.245 L 203.212 191.268 Z M 226.161 198.397 L 210.438 198.397 L 210.438 210.018 L 226.161 210.018 Z" style="fill: #fff; white-space: pre;"/>
  <path d="M 267.637 168.515 L 251.817 168.515 L 251.817 210.214 L 274.18 210.214 L 274.18 217.245 L 244.005 217.245 L 244.005 161.288 L 274.962 161.288 L 274.962 177.206 L 267.637 177.206 Z" style="fill: #9f9; white-space: pre;"/>
  <path d="M 308.106 191.268 L 308.106 180.233 L 284.962 180.233 L 284.962 173.202 L 315.919 173.202 L 315.919 217.245 L 285.157 217.245 L 285.157 191.268 Z M 308.106 198.397 L 292.383 198.397 L 292.383 210.018 L 308.106 210.018 Z" style="fill: #9f9; white-space: pre;"/>
  <path d="M 333.356 209.921 L 333.356 206.21 L 325.934 206.21 L 325.934 217.245 L 356.696 217.147 L 356.696 194.589 L 333.747 189.218 L 333.747 180.526 L 349.567 180.526 L 349.567 189.218 L 356.891 189.218 L 356.891 173.202 L 325.934 173.202 L 325.934 196.249 L 349.079 201.62 L 349.079 209.921 Z" style="fill: #9f9; white-space: pre;"/>
  <path d="M 397.864 217.245 L 397.864 173.202 L 374.329 173.202 L 374.329 151.229 L 366.907 151.229 L 366.907 217.245 L 374.329 217.245 L 374.329 180.233 L 390.051 180.233 L 390.051 217.245 Z" style="fill: #9f9; white-space: pre;"/>
</svg>