<?xml version="1.0" standalone="no"?>
<!DOCTYPE svg PUBLIC "-//W3C//DTD SVG 20010904//EN"
 "http://www.w3.org/TR/2001/REC-SVG-20010904/DTD/svg10.dtd">
<svg version="1.0" xmlns="http://www.w3.org/2000/svg"
 width="5250.000000pt" height="1380.000000pt" viewBox="0 0 5250.000000 1380.000000"
 preserveAspectRatio="xMidYMid meet">
<style>
    @keyframes a {
        0% {fill: #fff;}
        20% {fill: #fff;}
        22% {fill: #9f9;}
        24% {fill: #9f9;}
        32% {fill: #fff;}
        100% {fill: #fff;}
    }
    @keyframes b {
        0% {fill: #fff;}
        22% {fill: #fff;}
        24% {fill: #9f9;}
        26% {fill: #9f9;}
        34% {fill: #fff;}
        100% {fill: #fff;}
    }
    @keyframes c {
        0% {fill: #fff;}
        24% {fill: #fff;}
        26% {fill: #9f9;}
        28% {fill: #9f9;}
        36% {fill: #fff;}
        100% {fill: #fff;}
    }
    @keyframes d {
        0% {fill: #fff;}
        26% {fill: #fff;}
        28% {fill: #9f9;}
        30% {fill: #9f9;}
        38% {fill: #fff;}
        50% {fill: #fff;}
        100% {fill: #9f9;}
    }
    @keyframes e {
        0% {fill: #fff;}
        28% {fill: #fff;}
        30% {fill: #9f9;}
        32% {fill: #9f9;}
        40% {fill: #fff;}
        50% {fill: #fff;}
        100% {fill: #9f9;}
    }
    @keyframes f {
        0% {fill: #fff;}
        30% {fill: #fff;}
        32% {fill: #9f9;}
        34% {fill: #9f9;}
        42% {fill: #fff;}
        50% {fill: #fff;}
        100% {fill: #9f9;}
    }
    @keyframes g {
        0% {fill: #fff;}
        32% {fill: #fff;}
        34% {fill: #9f9;}
        36% {fill: #9f9;}
        44% {fill: #fff;}
        50% {fill: #fff;}
        100% {fill: #9f9;}
    }
</style>
<g transform="translate(0.000000,1380.000000) scale(0.100000,-0.100000)"
fill="#000000" stroke="none">
<path style="fill: #fff; animation: a 5s;" d="M380 7115 l0 -4585 835 0 835 0 0 2505 0 2505 1875 0 1875 0 0 625 0
625 625 0 625 0 0 830 0 830 -625 0 -625 0 0 625 0 625 -2710 0 -2710 0 0
-4585z m5000 2505 l0 -420 -1665 0 -1665 0 0 420 0 420 1665 0 1665 0 0 -420z"/>
<path style="fill: #fff; animation: b 5s;" d="M9130 8575 l0 -625 -625 0 -625 0 0 -2085 0 -2085 625 0 625 0 0
-625 0 -625 2710 0 2710 0 0 835 0 835 -2500 0 -2500 0 0 415 0 415 2500 0
2500 0 0 1460 0 1460 -625 0 -625 0 0 625 0 625 -2085 0 -2085 0 0 -625z
m3750 -1455 l0 -420 -1665 0 -1665 0 0 420 0 420 1665 0 1665 0 0 -420z"/>
<path style="fill: #fff; animation: c 5s;" d="M16630 8370 l0 -830 1875 0 1875 0 0 -420 0 -420 -1875 0 -1875 0 0
-625 0 -625 -625 0 -625 0 0 -835 0 -835 625 0 625 0 0 -625 0 -625 2710 0
2710 0 0 2710 0 2710 -625 0 -625 0 0 625 0 625 -2085 0 -2085 0 0 -830z
m3750 -3755 l0 -415 -1665 0 -1665 0 0 415 0 415 1665 0 1665 0 0 -415z"/>
<path style="fill: #9f9; animation: d 5s;" d="M24130 11075 l0 -625 -625 0 -625 0 0 -3335 0 -3335 625 0 625 0 0
-625 0 -625 2085 0 2085 0 0 625 0 625 625 0 625 0 0 835 0 835 -835 0 -835 0
0 -625 0 -625 -1665 0 -1665 0 0 2920 0 2920 1665 0 1665 0 0 -625 0 -625 835
0 835 0 0 830 0 830 -625 0 -625 0 0 625 0 625 -2085 0 -2085 0 0 -625z"/>
<path style="fill: #9f9; animation: e 5s;" d="M31630 8370 l0 -830 1875 0 1875 0 0 -420 0 -420 -1875 0 -1875 0 0
-625 0 -625 -625 0 -625 0 0 -835 0 -835 625 0 625 0 0 -625 0 -625 2710 0
2710 0 0 2710 0 2710 -625 0 -625 0 0 625 0 625 -2085 0 -2085 0 0 -830z
m3750 -3755 l0 -415 -1665 0 -1665 0 0 415 0 415 1665 0 1665 0 0 -415z"/>
<path style="fill: #9f9; animation: f 5s;" d="M39130 8575 l0 -625 -625 0 -625 0 0 -835 0 -835 625 0 625 0 0 -625
0 -625 1875 0 1875 0 0 -415 0 -415 -2500 0 -2500 0 0 -835 0 -835 2710 0
2710 0 0 625 0 625 625 0 625 0 0 835 0 835 -625 0 -625 0 0 625 0 625 -1875
0 -1875 0 0 420 0 420 2500 0 2500 0 0 830 0 830 -2710 0 -2710 0 0 -625z"/>
<path style="fill: #9f9; animation: g 5s;" d="M45380 7115 l0 -4585 835 0 835 0 0 1875 0 1875 625 0 625 0 0 630 0
630 1040 0 1040 0 0 -2505 0 -2505 835 0 835 0 0 2710 0 2710 -625 0 -625 0 0
625 0 625 -1460 0 -1460 0 0 -625 0 -625 -415 0 -415 0 0 1875 0 1875 -835 0
-835 0 0 -4585z"/>
</g>
</svg>
