<?xml version="1.0" encoding="utf-8"?>
<svg viewBox="543.146 103.083 524.936 137.086" width="524.936" height="137.086" xmlns="http://www.w3.org/2000/svg">
  <path d="M 593.146 152.944 L 593.146 140.444 L 605.646 140.444 L 605.646 152.944 Z M 543.146 215.444 L 543.146 127.944 L 593.146 127.944 L 593.146 140.444 L 555.646 140.444 L 555.646 152.944 L 593.146 152.944 L 593.146 165.444 L 555.646 165.444 L 555.646 215.444 Z" style="fill: rgb(255, 255, 255); white-space: pre;"/>
  <path d="M 630.635 215.444 L 630.635 202.944 L 680.635 202.944 L 680.635 215.444 Z M 618.135 202.944 L 618.135 165.444 L 630.635 165.444 L 630.635 177.944 L 668.135 177.944 L 668.135 165.444 L 680.635 165.444 L 680.635 190.444 L 630.635 190.444 L 630.635 202.944 Z M 630.635 165.444 L 630.635 152.944 L 668.135 152.944 L 668.135 165.444 Z" style="fill: rgb(255, 255, 255); white-space: pre;"/>
  <path d="M 693.123 202.944 L 693.123 190.444 L 705.623 190.444 L 705.623 202.944 Z M 705.623 215.444 L 705.623 202.944 L 743.123 202.944 L 743.123 190.444 L 705.623 190.444 L 705.623 177.944 L 743.123 177.944 L 743.123 165.444 L 755.623 165.444 L 755.623 215.444 Z M 705.623 165.444 L 705.623 152.944 L 743.123 152.944 L 743.123 165.444 Z" style="fill: rgb(255, 255, 255); white-space: pre;"/>
  <path d="M 780.628 215.444 L 780.628 202.944 L 818.128 202.944 L 818.128 215.444 Z M 818.128 202.944 L 818.128 190.444 L 830.628 190.444 L 830.628 202.944 Z M 768.128 202.944 L 768.128 140.444 L 780.628 140.444 L 780.628 202.944 Z M 818.128 152.944 L 818.128 140.444 L 830.628 140.444 L 830.628 152.944 Z M 780.628 140.444 L 780.628 127.944 L 818.128 127.944 L 818.128 140.444 Z" style="fill: rgb(153, 255, 153); white-space: pre;"/>
  <path d="M 843.116 202.944 L 843.116 190.444 L 855.616 190.444 L 855.616 202.944 Z M 855.616 215.444 L 855.616 202.944 L 893.116 202.944 L 893.116 190.444 L 855.616 190.444 L 855.616 177.944 L 893.116 177.944 L 893.116 165.444 L 905.616 165.444 L 905.616 215.444 Z M 855.616 165.444 L 855.616 152.944 L 893.116 152.944 L 893.116 165.444 Z" style="fill: rgb(153, 255, 153); white-space: pre;"/>
  <path d="M 918.105 215.444 L 918.105 202.944 L 968.105 202.944 L 968.105 215.444 Z M 968.105 202.944 L 968.105 190.444 L 980.605 190.444 L 980.605 202.944 Z M 930.605 190.444 L 930.605 177.944 L 968.105 177.944 L 968.105 190.444 Z M 918.105 177.944 L 918.105 165.444 L 930.605 165.444 L 930.605 177.944 Z M 930.605 165.444 L 930.605 152.944 L 980.605 152.944 L 980.605 165.444 Z" style="fill: rgb(153, 255, 153); white-space: pre;"/>
  <path d="M 1043.094 215.444 L 1043.094 165.444 L 1055.594 165.444 L 1055.594 215.444 Z M 1018.094 165.444 L 1018.094 152.944 L 1043.094 152.944 L 1043.094 165.444 Z M 993.094 215.444 L 993.094 127.944 L 1005.594 127.944 L 1005.594 165.444 L 1018.094 165.444 L 1018.094 177.944 L 1005.594 177.944 L 1005.594 215.444 Z" style="fill: rgb(153, 255, 153); white-space: pre;"/>
</svg>